{"accessors" : [{"bufferView" : 0, "byteOffset" : 0, "componentType" : 5123, "count" : 3840, "type" : "SCALAR", "max" : [3199], "min" : [0]}, {"bufferView" : 1, "byteOffset" : 0, "componentType" : 5126, "count" : 3200, "type" : "VEC3", "max" : [2.5461153984069824, 1.484774112701416, 3.2030553817749023], "min" : [-3.498255729675293, -1.4793550968170166, -3.202956199645996], "name" : "POSITION"}, {"bufferView" : 1, "byteOffset" : 12, "componentType" : 5126, "count" : 3200, "type" : "VEC3", "max" : [0.9853358268737793, 0.9958885908126831, 0.9998123049736023], "min" : [-0.9892829060554504, -0.9945608973503113, -0.9993035793304443], "name" : "NORMAL"}, {"bufferView" : 0, "byteOffset" : 7680, "componentType" : 5123, "count" : 6, "type" : "SCALAR", "max" : [4], "min" : [0]}, {"bufferView" : 2, "byteOffset" : 0, "componentType" : 5126, "count" : 5, "type" : "VEC3", "max" : [1, 0, 1], "min" : [-1, 0, -1], "name" : "POSITION"}, {"bufferView" : 2, "byteOffset" : 12, "componentType" : 5126, "count" : 5, "type" : "VEC2", "max" : [1, 1], "min" : [0, 0], "name" : "TEXCOORD_0"}, {"bufferView" : 2, "byteOffset" : 20, "componentType" : 5126, "count" : 5, "type" : "VEC3", "max" : [0, 1.0000044107437134, -0], "min" : [0, 1.0000044107437134, -0], "name" : "NORMAL"}, {"bufferView" : 0, "byteOffset" : 7692, "componentType" : 5123, "count" : 6, "type" : "SCALAR", "max" : [4], "min" : [0]}, {"bufferView" : 3, "byteOffset" : 0, "componentType" : 5126, "count" : 5, "type" : "VEC3", "max" : [1, 0, 1], "min" : [-1, 0, -1], "name" : "POSITION"}, {"bufferView" : 3, "byteOffset" : 12, "componentType" : 5126, "count" : 5, "type" : "VEC2", "max" : [1, 1], "min" : [0, 0], "name" : "TEXCOORD_0"}, {"bufferView" : 3, "byteOffset" : 20, "componentType" : 5126, "count" : 5, "type" : "VEC3", "max" : [0, 1.0000044107437134, -0], "min" : [0, 1.0000044107437134, -0], "name" : "NORMAL"}, {"bufferView" : 0, "byteOffset" : 7704, "componentType" : 5123, "count" : 15360, "type" : "SCALAR", "max" : [12797], "min" : [0]}, {"bufferView" : 4, "byteOffset" : 0, "componentType" : 5126, "count" : 12798, "type" : "VEC3", "max" : [3.002636432647705, 1.95125150680542, 3.695521593093872], "min" : [-3.963035821914673, -1.955345630645752, -3.692845344543457], "name" : "POSITION"}, {"bufferView" : 4, "byteOffset" : 12, "componentType" : 5126, "count" : 12798, "type" : "VEC3", "max" : [0.9999567270278931, 0.9961372017860413, 0.9992755651473999], "min" : [-0.9999728202819824, -0.9918870329856873, -0.9995461106300354], "name" : "NORMAL"}], "asset" : {"generator" : "Aspose.3D 23.9.0", "version" : "2.0"}, "buffers" : [{"uri" : "data:application/octet-stream;base64,", "byteLength" : 499628}], "bufferViews" : [{"buffer" : 0, "byteOffset" : 0, "byteLength" : 38424, "target" : 34963}, {"buffer" : 0, "byteOffset" : 38428, "byteLength" : 92160, "byteStride" : 24, "target" : 34962}, {"buffer" : 0, "byteOffset" : 130592, "byteLength" : 192, "byteStride" : 32, "target" : 34962}, {"buffer" : 0, "byteOffset" : 130788, "byteLength" : 192, "byteStride" : 32, "target" : 34962}, {"buffer" : 0, "byteOffset" : 130984, "byteLength" : 368640, "byteStride" : 24, "target" : 34962}], "materials" : [{"name" : "Material.001", "pbrMetallicRoughness" : {"baseColorFactor" : [0.800000011920929, 0.800000011920929, 0.800000011920929, 1], "metallicFactor" : 1, "roughnessFactor" : 0.10000000149011612}, "emissiveFactor" : [0, 0, 0], "alphaMode" : "OPAQUE", "doubleSided" : true}, {"name" : "Material.002", "pbrMetallicRoughness" : {"baseColorFactor" : [1, 1, 1, 1], "metallicFactor" : 0, "roughnessFactor" : 0.5}, "emissiveFactor" : [5.960464477539063E-08, 4.5549722216264854E-08, 4.259661423589023E-08], "alphaMode" : "OPAQUE", "doubleSided" : true}, {"name" : "Material.003", "pbrMetallicRoughness" : {"baseColorFactor" : [1, 1, 1, 1], "metallicFactor" : 0, "roughnessFactor" : 0.5}, "emissiveFactor" : [5.960464477539063E-08, 4.5549722216264854E-08, 4.259661423589023E-08], "alphaMode" : "OPAQUE", "doubleSided" : true}, {"name" : "Material.001", "pbrMetallicRoughness" : {"baseColorFactor" : [0.800000011920929, 0.800000011920929, 0.800000011920929, 1], "metallicFactor" : 1, "roughnessFactor" : 0.10000000149011612}, "emissiveFactor" : [0, 0, 0], "alphaMode" : "OPAQUE", "doubleSided" : true}], "meshes" : [{"primitives" : [{"attributes" : {"POSITION" : 1, "NORMAL" : 2}, "indices" : 0, "material" : 0, "mode" : 4}]}, {"primitives" : [{"attributes" : {"POSITION" : 4, "TEXCOORD_0" : 5, "NORMAL" : 6}, "indices" : 3, "material" : 1, "mode" : 4}]}, {"primitives" : [{"attributes" : {"POSITION" : 8, "TEXCOORD_0" : 9, "NORMAL" : 10}, "indices" : 7, "material" : 2, "mode" : 4}]}, {"primitives" : [{"attributes" : {"POSITION" : 12, "NORMAL" : 13}, "indices" : 11, "material" : 3, "mode" : 4}]}], "nodes" : [{"matrix" : [3.607182025909424, 0, 0, 0, 0, 3.607182025909424, 0, 0, 0, 0, 3.607182025909424, 0, 0, 0, 0, 1], "mesh" : 0, "name" : "TorusKnot"}, {"matrix" : [897.3343505859375, 0, 0, 0, 0, 897.3343505859375, 0, 0, 0, 0, 897.3343505859375, 0, 0, 39.18168258666992, 0, 1], "mesh" : 1, "name" : "Plane"}, {"matrix" : [4527.2109375, 0, 0, 0, 0, 4527.2109375, 0, 0, 0, 0, 4527.2109375, 0, -0.48848748207092285, -966.7988891601562, -8.946569442749023, 1], "mesh" : 2, "name" : "Plane.001"}, {"matrix" : [3.607182025909424, 0, 0, 0, 0, 3.607182025909424, 0, 0, 0, 0, 3.607182025909424, 0, 0, 0, 0, 1], "mesh" : 3, "name" : "TorusKnot.001"}], "scene" : 0, "scenes" : [{"nodes" : [0, 1, 2, 3]}]}