{
	"asset":{
		"generator":"Khronos glTF Blender I/O v3.6.27",
		"version":"2.0"
	},
	"extensionsUsed":[
		"KHR_materials_transmission",
		"KHR_materials_specular",
		"KHR_materials_ior"
	],
	"scene":0,
	"scenes":[
		{
			"name":"Scene",
			"nodes":[
				0,
				1,
				2,
				3
			]
		}
	],
	"nodes":[
		{
			"mesh":0,
			"name":"TorusKnot",
			"scale":[
				3.607182025909424,
				3.607182025909424,
				3.607182025909424
			]
		},
		{
			"mesh":1,
			"name":"Plane",
			"scale":[
				897.3343505859375,
				897.3343505859375,
				897.3343505859375
			],
			"translation":[
				0,
				39.18168258666992,
				0
			]
		},
		{
			"mesh":2,
			"name":"Plane.001",
			"scale":[
				4527.2109375,
				4527.2109375,
				4527.2109375
			],
			"translation":[
				-0.48848748207092285,
				-966.7988891601562,
				-8.946569442749023
			]
		},
		{
			"mesh":3,
			"name":"TorusKnot.001",
			"scale":[
				3.607182025909424,
				3.607182025909424,
				3.607182025909424
			]
		}
	],
	"materials":[
		{
			"doubleSided":true,
			"name":"Material.001",
			"pbrMetallicRoughness":{}
		},
		{
			"doubleSided":true,
			"emissiveFactor":[
				5.960464477539063e-08,
				4.5549722216264854e-08,
				4.259661423589023e-08
			],
			"name":"Material.002",
			"pbrMetallicRoughness":{
				"metallicFactor":0,
				"roughnessFactor":0.5
			}
		},
		{
			"doubleSided":true,
			"emissiveFactor":[
				5.960464477539063e-08,
				4.5549722216264854e-08,
				4.259661423589023e-08
			],
			"name":"Material.003",
			"pbrMetallicRoughness":{
				"metallicFactor":0,
				"roughnessFactor":0.5
			}
		},
		{
			"doubleSided":true,
			"extensions":{
				"KHR_materials_transmission":{
					"transmissionFactor":1
				},
				"KHR_materials_specular":{
					"specularColorFactor":[
						1,
						1,
						1
					]
				},
				"KHR_materials_ior":{
					"ior":1.4500000476837158
				}
			},
			"name":"Material.004",
			"pbrMetallicRoughness":{
				"metallicFactor":0,
				"roughnessFactor":0
			}
		}
	],
	"meshes":[
		{
			"name":"Mesh_0",
			"primitives":[
				{
					"attributes":{
						"POSITION":0,
						"NORMAL":1
					},
					"indices":2,
					"material":0
				}
			]
		},
		{
			"name":"Mesh_1",
			"primitives":[
				{
					"attributes":{
						"POSITION":3,
						"NORMAL":4,
						"TEXCOORD_0":5
					},
					"indices":6,
					"material":1
				}
			]
		},
		{
			"name":"Mesh_2",
			"primitives":[
				{
					"attributes":{
						"POSITION":7,
						"NORMAL":8,
						"TEXCOORD_0":9
					},
					"indices":6,
					"material":2
				}
			]
		},
		{
			"name":"Mesh_3",
			"primitives":[
				{
					"attributes":{
						"POSITION":10,
						"NORMAL":11
					},
					"indices":12,
					"material":3
				}
			]
		}
	],
	"accessors":[
		{
			"bufferView":0,
			"componentType":5126,
			"count":3638,
			"max":[
				2.5461153984069824,
				1.484774112701416,
				3.2030553817749023
			],
			"min":[
				-3.498255729675293,
				-1.4793550968170166,
				-3.202956199645996
			],
			"type":"VEC3"
		},
		{
			"bufferView":1,
			"componentType":5126,
			"count":3638,
			"type":"VEC3"
		},
		{
			"bufferView":2,
			"componentType":5123,
			"count":3840,
			"type":"SCALAR"
		},
		{
			"bufferView":3,
			"componentType":5126,
			"count":5,
			"max":[
				1,
				0,
				1
			],
			"min":[
				-1,
				0,
				-1
			],
			"type":"VEC3"
		},
		{
			"bufferView":4,
			"componentType":5126,
			"count":5,
			"type":"VEC3"
		},
		{
			"bufferView":5,
			"componentType":5126,
			"count":5,
			"type":"VEC2"
		},
		{
			"bufferView":6,
			"componentType":5123,
			"count":6,
			"type":"SCALAR"
		},
		{
			"bufferView":7,
			"componentType":5126,
			"count":5,
			"max":[
				1,
				0,
				1
			],
			"min":[
				-1,
				0,
				-1
			],
			"type":"VEC3"
		},
		{
			"bufferView":8,
			"componentType":5126,
			"count":5,
			"type":"VEC3"
		},
		{
			"bufferView":9,
			"componentType":5126,
			"count":5,
			"type":"VEC2"
		},
		{
			"bufferView":10,
			"componentType":5126,
			"count":12970,
			"max":[
				3.002636432647705,
				1.95125150680542,
				3.695521593093872
			],
			"min":[
				-3.963035821914673,
				-1.955345630645752,
				-3.692845344543457
			],
			"type":"VEC3"
		},
		{
			"bufferView":11,
			"componentType":5126,
			"count":12970,
			"type":"VEC3"
		},
		{
			"bufferView":12,
			"componentType":5123,
			"count":15360,
			"type":"SCALAR"
		}
	],
	"bufferViews":[
		{
			"buffer":0,
			"byteLength":43656,
			"byteOffset":0,
			"target":34962
		},
		{
			"buffer":0,
			"byteLength":43656,
			"byteOffset":43656,
			"target":34962
		},
		{
			"buffer":0,
			"byteLength":7680,
			"byteOffset":87312,
			"target":34963
		},
		{
			"buffer":0,
			"byteLength":60,
			"byteOffset":94992,
			"target":34962
		},
		{
			"buffer":0,
			"byteLength":60,
			"byteOffset":95052,
			"target":34962
		},
		{
			"buffer":0,
			"byteLength":40,
			"byteOffset":95112,
			"target":34962
		},
		{
			"buffer":0,
			"byteLength":12,
			"byteOffset":95152,
			"target":34963
		},
		{
			"buffer":0,
			"byteLength":60,
			"byteOffset":95164,
			"target":34962
		},
		{
			"buffer":0,
			"byteLength":60,
			"byteOffset":95224,
			"target":34962
		},
		{
			"buffer":0,
			"byteLength":40,
			"byteOffset":95284,
			"target":34962
		},
		{
			"buffer":0,
			"byteLength":155640,
			"byteOffset":95324,
			"target":34962
		},
		{
			"buffer":0,
			"byteLength":155640,
			"byteOffset":250964,
			"target":34962
		},
		{
			"buffer":0,
			"byteLength":30720,
			"byteOffset":406604,
			"target":34963
		}
	],
	"buffers":[
		{
			"byteLength":437324,
			"uri":"untitled.bin"
		}
	],

	  "images": [
    {
      "uri": "textures/texture.jpg"
    }
  ]
}
